<svg xmlns="http://www.w3.org/2000/svg" xmlns:xlink="http://www.w3.org/1999/xlink" width="500" zoomAndPan="magnify" viewBox="0 0 375 374.999991" height="500" preserveAspectRatio="xMidYMid meet" version="1.0"><defs><g/></defs><rect x="-37.5" width="450" fill="#ffffff" y="-37.499999" height="449.999989" fill-opacity="1"/><rect x="-37.5" width="450" fill="#f8f6f2" y="-37.499999" height="449.999989" fill-opacity="1"/><path fill="#040606" d="M 157.570312 158.207031 L 157.570312 127.476562 C 157.570312 118.257812 146.796875 113.644531 140.640625 119.792969 L 34.457031 215.058594 C 25.226562 222.738281 25.226562 238.105469 34.457031 245.789062 L 140.640625 344.125 C 146.796875 350.273438 157.570312 345.660156 157.570312 336.441406 L 157.570312 296.492188 C 157.570312 284.605469 167.355469 274.980469 179.261719 274.984375 C 263.800781 275.007812 306.855469 298.042969 331.460938 321.078125 C 339.15625 327.222656 349.925781 319.539062 346.847656 310.320312 C 312.996094 227.351562 243.746094 185.863281 179.113281 179.71875 C 166.800781 179.71875 157.570312 170.496094 157.570312 158.207031 " fill-opacity="1" fill-rule="nonzero"/><g fill="#000000" fill-opacity="1"><g transform="translate(92.189559, 85.251192)"><g><path d="M 6.4375 -51.09375 L 22.328125 -51.09375 C 29.578125 -51.09375 34.835938 -50.0625 38.109375 -48 C 41.390625 -45.9375 43.03125 -42.660156 43.03125 -38.171875 C 43.03125 -35.117188 42.3125 -32.613281 40.875 -30.65625 C 39.4375 -28.695312 37.53125 -27.519531 35.15625 -27.125 L 35.15625 -26.765625 C 38.394531 -26.046875 40.726562 -24.695312 42.15625 -22.71875 C 43.59375 -20.738281 44.3125 -18.101562 44.3125 -14.8125 C 44.3125 -10.15625 42.628906 -6.519531 39.265625 -3.90625 C 35.898438 -1.300781 31.328125 0 25.546875 0 L 6.4375 0 Z M 17.265625 -30.859375 L 23.5625 -30.859375 C 26.488281 -30.859375 28.609375 -31.3125 29.921875 -32.21875 C 31.242188 -33.132812 31.90625 -34.640625 31.90625 -36.734375 C 31.90625 -38.691406 31.1875 -40.09375 29.75 -40.9375 C 28.320312 -41.789062 26.0625 -42.21875 22.96875 -42.21875 L 17.265625 -42.21875 Z M 17.265625 -22.265625 L 17.265625 -8.953125 L 24.328125 -8.953125 C 27.304688 -8.953125 29.503906 -9.519531 30.921875 -10.65625 C 32.347656 -11.800781 33.0625 -13.550781 33.0625 -15.90625 C 33.0625 -20.144531 30.03125 -22.265625 23.96875 -22.265625 Z M 17.265625 -22.265625 "/></g></g></g><g fill="#000000" fill-opacity="1"><g transform="translate(140.276966, 85.251192)"><g><path d="M 37.71875 0 L 34 -12.15625 L 15.375 -12.15625 L 11.671875 0 L 0 0 L 18.03125 -51.3125 L 31.28125 -51.3125 L 49.390625 0 Z M 31.421875 -21.25 C 27.992188 -32.269531 26.0625 -38.5 25.625 -39.9375 C 25.195312 -41.382812 24.890625 -42.53125 24.703125 -43.375 C 23.941406 -40.394531 21.742188 -33.019531 18.109375 -21.25 Z M 31.421875 -21.25 "/></g></g></g><g fill="#000000" fill-opacity="1"><g transform="translate(189.657431, 85.251192)"><g><path d="M 28.140625 -42.8125 C 24.054688 -42.8125 20.894531 -41.28125 18.65625 -38.21875 C 16.425781 -35.15625 15.3125 -30.882812 15.3125 -25.40625 C 15.3125 -14.007812 19.585938 -8.3125 28.140625 -8.3125 C 31.722656 -8.3125 36.066406 -9.210938 41.171875 -11.015625 L 41.171875 -1.921875 C 36.972656 -0.171875 32.289062 0.703125 27.125 0.703125 C 19.6875 0.703125 14 -1.550781 10.0625 -6.0625 C 6.125 -10.570312 4.15625 -17.046875 4.15625 -25.484375 C 4.15625 -30.796875 5.117188 -35.445312 7.046875 -39.4375 C 8.984375 -43.4375 11.765625 -46.5 15.390625 -48.625 C 19.015625 -50.757812 23.265625 -51.828125 28.140625 -51.828125 C 33.097656 -51.828125 38.082031 -50.628906 43.09375 -48.234375 L 39.59375 -39.421875 C 37.6875 -40.328125 35.765625 -41.117188 33.828125 -41.796875 C 31.898438 -42.472656 30.003906 -42.8125 28.140625 -42.8125 Z M 28.140625 -42.8125 "/></g></g></g><g fill="#000000" fill-opacity="1"><g transform="translate(235.263594, 85.251192)"><g><path d="M 47.53125 0 L 35.234375 0 L 21.84375 -21.53125 L 17.265625 -18.25 L 17.265625 0 L 6.4375 0 L 6.4375 -51.09375 L 17.265625 -51.09375 L 17.265625 -27.71875 L 21.53125 -33.734375 L 35.375 -51.09375 L 47.390625 -51.09375 L 29.5625 -28.484375 Z M 47.53125 0 "/></g></g></g></svg>