<svg xmlns="http://www.w3.org/2000/svg" xmlns:xlink="http://www.w3.org/1999/xlink" width="500" zoomAndPan="magnify" viewBox="0 0 375 374.999991" height="500" preserveAspectRatio="xMidYMid meet" version="1.0"><defs><g/></defs><rect x="-37.5" width="450" fill="#ffffff" y="-37.499999" height="449.999989" fill-opacity="1"/><rect x="-37.5" width="450" fill="#f6f5f2" y="-37.499999" height="449.999989" fill-opacity="1"/><g fill="#060606" fill-opacity="1"><g transform="translate(29.162238, 185.728706)"><g><path d="M 23.71875 -53.328125 C 32.707031 -53.328125 39.382812 -51.078125 43.75 -46.578125 C 48.125 -42.085938 50.3125 -35.648438 50.3125 -27.265625 C 50.3125 -21.785156 49.242188 -17 47.109375 -12.90625 C 44.972656 -8.820312 41.867188 -5.648438 37.796875 -3.390625 C 33.734375 -1.128906 28.816406 0 23.046875 0 C 22.296875 0 21.289062 -0.0234375 20.03125 -0.078125 C 18.78125 -0.128906 17.488281 -0.164062 16.15625 -0.1875 C 14.820312 -0.207031 13.601562 -0.21875 12.5 -0.21875 C 10.738281 -0.21875 9.003906 -0.207031 7.296875 -0.1875 C 5.597656 -0.164062 4.21875 -0.101562 3.15625 0 L 3.15625 -1.5 C 4.863281 -1.601562 6.15625 -1.804688 7.03125 -2.109375 C 7.914062 -2.410156 8.507812 -3.007812 8.8125 -3.90625 C 9.113281 -4.8125 9.265625 -6.171875 9.265625 -7.984375 L 9.265625 -45.34375 C 9.265625 -47.195312 9.113281 -48.5625 8.8125 -49.4375 C 8.507812 -50.320312 7.914062 -50.925781 7.03125 -51.25 C 6.15625 -51.570312 4.863281 -51.757812 3.15625 -51.8125 L 3.15625 -53.328125 C 4.21875 -53.273438 5.597656 -53.207031 7.296875 -53.125 C 9.003906 -53.050781 10.6875 -53.039062 12.34375 -53.09375 C 14.101562 -53.144531 16.085938 -53.195312 18.296875 -53.25 C 20.503906 -53.300781 22.3125 -53.328125 23.71875 -53.328125 Z M 21.84375 -51.96875 C 19.53125 -51.96875 18.019531 -51.539062 17.3125 -50.6875 C 16.613281 -49.832031 16.265625 -48.097656 16.265625 -45.484375 L 16.265625 -7.828125 C 16.265625 -5.222656 16.628906 -3.492188 17.359375 -2.640625 C 18.085938 -1.785156 19.609375 -1.359375 21.921875 -1.359375 C 27.390625 -1.359375 31.628906 -2.347656 34.640625 -4.328125 C 37.648438 -6.316406 39.757812 -9.21875 40.96875 -13.03125 C 42.175781 -16.84375 42.78125 -21.488281 42.78125 -26.96875 C 42.78125 -32.582031 42.113281 -37.234375 40.78125 -40.921875 C 39.445312 -44.617188 37.257812 -47.382812 34.21875 -49.21875 C 31.1875 -51.050781 27.0625 -51.96875 21.84375 -51.96875 Z M 21.84375 -51.96875 "/></g></g></g><g fill="#060606" fill-opacity="1"><g transform="translate(82.10115, 185.728706)"><g><path d="M 24.328125 -53.703125 L 42.703125 -6.328125 C 43.453125 -4.421875 44.300781 -3.148438 45.25 -2.515625 C 46.207031 -1.890625 47.09375 -1.550781 47.90625 -1.5 L 47.90625 0 C 46.894531 -0.101562 45.660156 -0.164062 44.203125 -0.1875 C 42.753906 -0.207031 41.300781 -0.21875 39.84375 -0.21875 C 37.882812 -0.21875 36.050781 -0.207031 34.34375 -0.1875 C 32.632812 -0.164062 31.253906 -0.101562 30.203125 0 L 30.203125 -1.5 C 32.765625 -1.601562 34.394531 -2.039062 35.09375 -2.8125 C 35.800781 -3.59375 35.648438 -5.265625 34.640625 -7.828125 L 20.640625 -45.265625 L 21.84375 -46.234375 L 8.734375 -12.203125 C 7.929688 -10.191406 7.453125 -8.492188 7.296875 -7.109375 C 7.148438 -5.734375 7.289062 -4.644531 7.71875 -3.84375 C 8.144531 -3.039062 8.875 -2.460938 9.90625 -2.109375 C 10.9375 -1.753906 12.226562 -1.550781 13.78125 -1.5 L 13.78125 0 C 12.375 -0.101562 10.90625 -0.164062 9.375 -0.1875 C 7.84375 -0.207031 6.425781 -0.21875 5.125 -0.21875 C 3.863281 -0.21875 2.796875 -0.207031 1.921875 -0.1875 C 1.046875 -0.164062 0.226562 -0.101562 -0.53125 0 L -0.53125 -1.5 C 0.476562 -1.757812 1.507812 -2.351562 2.5625 -3.28125 C 3.613281 -4.207031 4.566406 -5.800781 5.421875 -8.0625 L 23.125 -53.703125 C 23.320312 -53.703125 23.519531 -53.703125 23.71875 -53.703125 C 23.925781 -53.703125 24.128906 -53.703125 24.328125 -53.703125 Z M 33.515625 -21.6875 L 33.515625 -20.1875 L 11.078125 -20.1875 L 11.828125 -21.6875 Z M 33.515625 -21.6875 "/></g></g></g><g fill="#060606" fill-opacity="1"><g transform="translate(128.036736, 185.728706)"><g/></g></g><g fill="#060606" fill-opacity="1"><g transform="translate(145.281253, 185.728706)"><g><path d="M 19.28125 -54.15625 C 21.789062 -54.15625 23.695312 -53.863281 25 -53.28125 C 26.3125 -52.707031 27.46875 -52.066406 28.46875 -51.359375 C 29.070312 -51.015625 29.5625 -50.753906 29.9375 -50.578125 C 30.3125 -50.398438 30.675781 -50.3125 31.03125 -50.3125 C 31.53125 -50.3125 31.890625 -50.585938 32.109375 -51.140625 C 32.335938 -51.691406 32.53125 -52.519531 32.6875 -53.625 L 34.421875 -53.625 C 34.367188 -52.769531 34.300781 -51.75 34.21875 -50.5625 C 34.144531 -49.382812 34.097656 -47.828125 34.078125 -45.890625 C 34.054688 -43.960938 34.046875 -41.421875 34.046875 -38.265625 L 32.3125 -38.265625 C 32.15625 -40.671875 31.625 -42.976562 30.71875 -45.1875 C 29.820312 -47.394531 28.503906 -49.203125 26.765625 -50.609375 C 25.035156 -52.015625 22.765625 -52.71875 19.953125 -52.71875 C 17.296875 -52.71875 15.097656 -51.914062 13.359375 -50.3125 C 11.628906 -48.707031 10.765625 -46.597656 10.765625 -43.984375 C 10.765625 -41.722656 11.34375 -39.828125 12.5 -38.296875 C 13.65625 -36.765625 15.195312 -35.382812 17.125 -34.15625 C 19.0625 -32.925781 21.160156 -31.609375 23.421875 -30.203125 C 26.035156 -28.597656 28.359375 -27.003906 30.390625 -25.421875 C 32.421875 -23.835938 34.023438 -22.09375 35.203125 -20.1875 C 36.390625 -18.28125 36.984375 -15.96875 36.984375 -13.25 C 36.984375 -10.039062 36.253906 -7.378906 34.796875 -5.265625 C 33.335938 -3.160156 31.398438 -1.582031 28.984375 -0.53125 C 26.578125 0.519531 23.921875 1.046875 21.015625 1.046875 C 18.347656 1.046875 16.234375 0.742188 14.671875 0.140625 C 13.117188 -0.453125 11.789062 -1.078125 10.6875 -1.734375 C 9.582031 -2.429688 8.734375 -2.78125 8.140625 -2.78125 C 7.628906 -2.78125 7.257812 -2.503906 7.03125 -1.953125 C 6.8125 -1.398438 6.628906 -0.570312 6.484375 0.53125 L 4.75 0.53125 C 4.84375 -0.519531 4.898438 -1.757812 4.921875 -3.1875 C 4.953125 -4.625 4.976562 -6.5 5 -8.8125 C 5.03125 -11.125 5.046875 -14.035156 5.046875 -17.546875 L 6.78125 -17.546875 C 6.976562 -14.535156 7.539062 -11.722656 8.46875 -9.109375 C 9.394531 -6.503906 10.828125 -4.410156 12.765625 -2.828125 C 14.703125 -1.242188 17.273438 -0.453125 20.484375 -0.453125 C 22.140625 -0.453125 23.707031 -0.789062 25.1875 -1.46875 C 26.664062 -2.144531 27.882812 -3.222656 28.84375 -4.703125 C 29.800781 -6.179688 30.28125 -8.101562 30.28125 -10.46875 C 30.28125 -12.53125 29.789062 -14.328125 28.8125 -15.859375 C 27.832031 -17.390625 26.460938 -18.816406 24.703125 -20.140625 C 22.941406 -21.472656 20.882812 -22.84375 18.53125 -24.25 C 16.164062 -25.707031 13.953125 -27.1875 11.890625 -28.6875 C 9.835938 -30.195312 8.195312 -31.941406 6.96875 -33.921875 C 5.738281 -35.910156 5.125 -38.3125 5.125 -41.125 C 5.125 -44.082031 5.785156 -46.523438 7.109375 -48.453125 C 8.441406 -50.390625 10.1875 -51.820312 12.34375 -52.75 C 14.507812 -53.6875 16.820312 -54.15625 19.28125 -54.15625 Z M 19.28125 -54.15625 "/></g></g></g><g fill="#060606" fill-opacity="1"><g transform="translate(184.439419, 185.728706)"><g><path d="M 24.328125 -53.703125 L 42.703125 -6.328125 C 43.453125 -4.421875 44.300781 -3.148438 45.25 -2.515625 C 46.207031 -1.890625 47.09375 -1.550781 47.90625 -1.5 L 47.90625 0 C 46.894531 -0.101562 45.660156 -0.164062 44.203125 -0.1875 C 42.753906 -0.207031 41.300781 -0.21875 39.84375 -0.21875 C 37.882812 -0.21875 36.050781 -0.207031 34.34375 -0.1875 C 32.632812 -0.164062 31.253906 -0.101562 30.203125 0 L 30.203125 -1.5 C 32.765625 -1.601562 34.394531 -2.039062 35.09375 -2.8125 C 35.800781 -3.59375 35.648438 -5.265625 34.640625 -7.828125 L 20.640625 -45.265625 L 21.84375 -46.234375 L 8.734375 -12.203125 C 7.929688 -10.191406 7.453125 -8.492188 7.296875 -7.109375 C 7.148438 -5.734375 7.289062 -4.644531 7.71875 -3.84375 C 8.144531 -3.039062 8.875 -2.460938 9.90625 -2.109375 C 10.9375 -1.753906 12.226562 -1.550781 13.78125 -1.5 L 13.78125 0 C 12.375 -0.101562 10.90625 -0.164062 9.375 -0.1875 C 7.84375 -0.207031 6.425781 -0.21875 5.125 -0.21875 C 3.863281 -0.21875 2.796875 -0.207031 1.921875 -0.1875 C 1.046875 -0.164062 0.226562 -0.101562 -0.53125 0 L -0.53125 -1.5 C 0.476562 -1.757812 1.507812 -2.351562 2.5625 -3.28125 C 3.613281 -4.207031 4.566406 -5.800781 5.421875 -8.0625 L 23.125 -53.703125 C 23.320312 -53.703125 23.519531 -53.703125 23.71875 -53.703125 C 23.925781 -53.703125 24.128906 -53.703125 24.328125 -53.703125 Z M 33.515625 -21.6875 L 33.515625 -20.1875 L 11.078125 -20.1875 L 11.828125 -21.6875 Z M 33.515625 -21.6875 "/></g></g></g><g fill="#060606" fill-opacity="1"><g transform="translate(230.374994, 185.728706)"><g><path d="M 62.4375 -53.328125 L 62.4375 -51.8125 C 60.726562 -51.757812 59.429688 -51.570312 58.546875 -51.25 C 57.671875 -50.925781 57.082031 -50.320312 56.78125 -49.4375 C 56.476562 -48.5625 56.328125 -47.195312 56.328125 -45.34375 L 56.328125 -7.984375 C 56.328125 -6.171875 56.476562 -4.8125 56.78125 -3.90625 C 57.082031 -3.007812 57.671875 -2.410156 58.546875 -2.109375 C 59.429688 -1.804688 60.726562 -1.601562 62.4375 -1.5 L 62.4375 0 C 61.28125 -0.101562 59.832031 -0.164062 58.09375 -0.1875 C 56.363281 -0.207031 54.625 -0.21875 52.875 -0.21875 C 50.914062 -0.21875 49.082031 -0.207031 47.375 -0.1875 C 45.664062 -0.164062 44.285156 -0.101562 43.234375 0 L 43.234375 -1.5 C 44.941406 -1.601562 46.234375 -1.804688 47.109375 -2.109375 C 47.984375 -2.410156 48.570312 -3.007812 48.875 -3.90625 C 49.175781 -4.8125 49.328125 -6.171875 49.328125 -7.984375 L 49.328125 -49.40625 L 49.625 -49.171875 L 31.171875 0.375 L 29.96875 0.375 L 11 -48.5 L 11 -8.734375 C 11 -6.929688 11.160156 -5.515625 11.484375 -4.484375 C 11.804688 -3.453125 12.457031 -2.722656 13.4375 -2.296875 C 14.414062 -1.867188 15.882812 -1.601562 17.84375 -1.5 L 17.84375 0 C 16.945312 -0.101562 15.769531 -0.164062 14.3125 -0.1875 C 12.851562 -0.207031 11.472656 -0.21875 10.171875 -0.21875 C 8.910156 -0.21875 7.640625 -0.207031 6.359375 -0.1875 C 5.078125 -0.164062 4.007812 -0.101562 3.15625 0 L 3.15625 -1.5 C 4.863281 -1.601562 6.15625 -1.867188 7.03125 -2.296875 C 7.914062 -2.722656 8.507812 -3.453125 8.8125 -4.484375 C 9.113281 -5.515625 9.265625 -6.929688 9.265625 -8.734375 L 9.265625 -45.34375 C 9.265625 -47.195312 9.113281 -48.5625 8.8125 -49.4375 C 8.507812 -50.320312 7.914062 -50.925781 7.03125 -51.25 C 6.15625 -51.570312 4.863281 -51.757812 3.15625 -51.8125 L 3.15625 -53.328125 C 4.007812 -53.273438 5.078125 -53.222656 6.359375 -53.171875 C 7.640625 -53.117188 8.910156 -53.09375 10.171875 -53.09375 C 11.273438 -53.09375 12.414062 -53.117188 13.59375 -53.171875 C 14.769531 -53.222656 15.757812 -53.273438 16.5625 -53.328125 L 33.671875 -8.28125 L 32.390625 -7.6875 L 49.328125 -53.09375 C 49.929688 -53.09375 50.519531 -53.09375 51.09375 -53.09375 C 51.675781 -53.09375 52.269531 -53.09375 52.875 -53.09375 C 54.625 -53.09375 56.363281 -53.117188 58.09375 -53.171875 C 59.832031 -53.222656 61.28125 -53.273438 62.4375 -53.328125 Z M 62.4375 -53.328125 "/></g></g></g><g fill="#060606" fill-opacity="1"><g transform="translate(294.458997, 185.728706)"><g><path d="M 49.328125 -53.328125 L 49.328125 -51.8125 C 47.617188 -51.757812 46.328125 -51.507812 45.453125 -51.0625 C 44.578125 -50.613281 43.988281 -49.882812 43.6875 -48.875 C 43.382812 -47.875 43.234375 -46.441406 43.234375 -44.578125 L 43.234375 -21.921875 C 43.234375 -18.398438 43.003906 -15.332031 42.546875 -12.71875 C 42.097656 -10.113281 41.296875 -7.859375 40.140625 -5.953125 C 38.890625 -3.835938 37.054688 -2.140625 34.640625 -0.859375 C 32.234375 0.410156 29.472656 1.046875 26.359375 1.046875 C 23.953125 1.046875 21.65625 0.757812 19.46875 0.1875 C 17.28125 -0.382812 15.359375 -1.453125 13.703125 -3.015625 C 12.242188 -4.421875 11.097656 -5.898438 10.265625 -7.453125 C 9.441406 -9.015625 8.878906 -10.921875 8.578125 -13.171875 C 8.285156 -15.429688 8.140625 -18.269531 8.140625 -21.6875 L 8.140625 -45.34375 C 8.140625 -47.195312 7.988281 -48.5625 7.6875 -49.4375 C 7.382812 -50.320312 6.789062 -50.925781 5.90625 -51.25 C 5.03125 -51.570312 3.738281 -51.757812 2.03125 -51.8125 L 2.03125 -53.328125 C 3.082031 -53.273438 4.460938 -53.222656 6.171875 -53.171875 C 7.878906 -53.117188 9.710938 -53.09375 11.671875 -53.09375 C 13.429688 -53.09375 15.175781 -53.117188 16.90625 -53.171875 C 18.632812 -53.222656 20.078125 -53.273438 21.234375 -53.328125 L 21.234375 -51.8125 C 19.523438 -51.757812 18.234375 -51.570312 17.359375 -51.25 C 16.484375 -50.925781 15.894531 -50.320312 15.59375 -49.4375 C 15.289062 -48.5625 15.140625 -47.195312 15.140625 -45.34375 L 15.140625 -20.40625 C 15.140625 -17.84375 15.265625 -15.421875 15.515625 -13.140625 C 15.765625 -10.859375 16.273438 -8.847656 17.046875 -7.109375 C 17.828125 -5.378906 19.019531 -4.023438 20.625 -3.046875 C 22.238281 -2.066406 24.375 -1.578125 27.03125 -1.578125 C 30.851562 -1.578125 33.804688 -2.414062 35.890625 -4.09375 C 37.972656 -5.78125 39.425781 -8.101562 40.25 -11.0625 C 41.082031 -14.03125 41.5 -17.375 41.5 -21.09375 L 41.5 -44.578125 C 41.5 -46.441406 41.285156 -47.875 40.859375 -48.875 C 40.429688 -49.882812 39.710938 -50.613281 38.703125 -51.0625 C 37.703125 -51.507812 36.347656 -51.757812 34.640625 -51.8125 L 34.640625 -53.328125 C 35.546875 -53.273438 36.738281 -53.222656 38.21875 -53.171875 C 39.695312 -53.117188 41.066406 -53.09375 42.328125 -53.09375 C 43.628906 -53.09375 44.921875 -53.117188 46.203125 -53.171875 C 47.484375 -53.222656 48.523438 -53.273438 49.328125 -53.328125 Z M 49.328125 -53.328125 "/></g></g></g><path stroke-linecap="butt" transform="matrix(0.903369, 0, 0, 0.903369, 60.620487, 124.627463)" fill="none" stroke-linejoin="miter" d="M 16.972723 67.768728 C 3.797222 75.28832 3.364813 81.160433 7.234873 89.752399 C 9.025046 93.76083 11.671389 98.560569 9.669336 103.572189 C 9.669336 103.572189 9.669336 103.572189 9.669336 103.645698 C 9.522317 104.073783 9.669336 104.432683 10.023911 104.575378 C 9.025046 107.584944 8.091043 110.521001 7.161364 113.457057 C 4.225307 114.101347 3.079423 113.240853 2.21893 113.310038 C 0.644961 113.383548 0.000671742 115.601806 1.57464 115.53262 C 2.577829 115.53262 5.154986 115.389925 6.65977 115.100211 C 5.513886 118.970271 2.21893 129.568615 3.079423 130.783684 C 3.797222 131.574992 5.656581 130.28209 5.228496 129.283225 C 5.513886 125.845574 7.732144 118.109778 8.735332 114.602941 C 18.118607 111.593375 27.929966 101.855525 34.087469 93.834339 C 54.709052 66.765539 49.485552 49.508098 16.972723 67.768728 Z M 32.297296 93.047355 C 26.710572 100.277233 17.833217 109.729692 9.236927 112.812768 C 10.382811 109.085403 11.528694 105.362362 12.748088 101.639321 C 13.893971 98.275179 20.838459 77.506577 24.202601 75.1413 C 24.777704 75.072115 25.421994 74.427826 25.564689 73.852722 C 26.066283 72.494958 24.133415 72.494958 22.914022 73.783536 C 19.62339 76.931474 13.677767 93.834339 12.389188 97.63089 C 11.887594 94.335934 10.313625 91.542572 8.951537 88.74921 C 5.371191 80.944229 5.872785 75.932609 17.543503 69.416206 C 49.840127 51.367457 50.341721 69.770781 32.297296 93.047355 Z M 57.433228 99.204858 C 53.995577 103.144104 49.770942 108.229233 45.472797 111.022595 C 40.962771 113.885142 36.163032 114.027837 36.379237 108.730828 C 36.448422 105.647752 37.81051 102.858714 39.886073 99.775638 C 40.889262 98.417874 39.025579 97.700075 38.0959 99.062163 C 36.020337 102.067406 34.515554 105.863956 34.299349 109.301607 C 34.01396 116.319605 40.102278 116.678504 46.186271 112.523054 C 50.843316 109.375117 54.925256 104.004598 58.289398 99.706453 C 58.790992 99.062163 58.004008 98.629755 57.433228 99.204858 Z M 42.320535 94.980223 C 42.320535 94.980223 42.320535 94.980223 42.394045 94.980223 C 42.320535 94.980223 42.320535 94.980223 42.320535 94.980223 Z M 42.53674 94.837528 C 42.605925 94.764019 43.751809 94.405119 43.825319 93.259235 C 43.825319 92.545761 43.181029 92.186861 42.394045 92.403066 C 41.248161 92.831151 40.673057 93.834339 40.244973 94.906713 C 40.028768 95.551003 39.816888 96.195292 39.816888 96.839581 C 39.816888 97.414685 40.603872 97.341176 40.889262 96.770396 C 41.248161 96.268802 41.676246 95.481817 42.53674 94.837528 Z M 87.005676 99.563758 C 84.428519 102.140915 81.635157 104.575378 78.77261 106.793635 C 69.030436 114.170532 64.663106 113.383548 57.000819 112.311174 C 60.79737 109.876711 68.316961 104.289988 71.395713 101.068541 C 72.826987 99.490248 72.468087 98.776774 71.253018 98.703264 C 69.462845 98.776774 64.092326 99.632943 60.581165 99.347553 C 57.861313 99.131349 58.648297 98.48706 58.721807 98.417874 C 59.149892 97.84277 59.007197 97.198481 58.505602 97.055786 C 58.004008 96.839581 57.286209 97.198481 56.858124 97.773585 C 54.994442 100.709642 57.000819 101.280421 59.651486 101.496626 C 62.514033 101.71283 66.094379 101.280421 69.030436 100.921522 C 65.951684 104.004598 59.219077 109.228098 54.639866 112.02146 C 53.705863 111.952274 52.702674 111.809579 51.70381 112.237664 C 49.982822 112.955463 49.554737 115.316416 51.34491 115.173721 C 52.274589 115.031026 53.420473 114.455922 54.280967 113.958652 C 62.371338 115.24723 68.027247 117.322793 79.559594 107.939519 C 82.564836 105.505057 85.289013 102.858714 87.723475 100.065352 C 88.294255 99.490248 87.58078 98.919469 87.005676 99.563758 Z M 116.651634 99.563758 C 114.074476 102.140915 111.281114 104.575378 108.418567 106.793635 C 98.676394 114.170532 94.309063 113.383548 86.646777 112.311174 C 90.443327 109.876711 97.962919 104.289988 101.041671 101.068541 C 102.472944 99.490248 102.114045 98.776774 100.898976 98.703264 C 99.108803 98.776774 93.738283 99.632943 90.227123 99.347553 C 87.507271 99.131349 88.294255 98.48706 88.367764 98.417874 C 88.795849 97.84277 88.653154 97.198481 88.15156 97.055786 C 87.649965 96.839581 86.932167 97.198481 86.504082 97.773585 C 84.640399 100.709642 86.646777 101.280421 89.297444 101.496626 C 92.159991 101.71283 95.740337 101.280421 98.676394 100.921522 C 95.597642 104.004598 88.869359 109.228098 84.285824 112.02146 C 83.351821 111.952274 82.352956 111.809579 81.349767 112.237664 C 79.628779 112.955463 79.200695 115.316416 80.990868 115.173721 C 81.920547 115.031026 83.066431 114.455922 83.926924 113.958652 C 92.017296 115.24723 97.677529 117.322793 109.205552 107.939519 C 112.210794 105.505057 114.93497 102.858714 117.369432 100.065352 C 117.940212 99.490248 117.226738 98.919469 116.651634 99.563758 Z M 139.210408 99.204858 C 134.985773 103.355984 129.827134 108.371928 124.742005 111.09178 C 117.079718 115.24723 111.06491 112.596564 115.077665 104.004598 C 117.940212 103.931088 121.235168 103.286799 123.885835 101.280421 C 128.395861 97.91628 127.535367 93.259235 123.168036 94.478629 C 119.514181 95.481817 115.004156 99.347553 112.785898 105.003462 C 108.989347 114.672127 116.150039 117.893573 125.243599 112.665749 C 130.761138 109.586997 135.699248 104.359173 139.923883 99.706453 C 140.498987 99.131349 139.781188 98.629755 139.210408 99.204858 Z M 123.025342 96.268802 C 125.459804 95.693698 125.317109 98.132484 122.951832 99.849148 C 121.018964 101.353931 118.372621 101.782016 116.292734 101.855525 C 118.372621 98.703264 121.235168 96.770396 123.025342 96.268802 Z M 164.843611 99.204858 C 161.552979 102.499815 157.756428 106.222856 154.033387 109.016217 C 147.30078 113.958652 140.641682 115.031026 141.856751 108.298419 C 142.28916 106.149346 143.435044 103.355984 145.437097 100.277233 C 146.582981 98.776774 146.228406 98.132484 144.723623 98.344365 C 144.005824 98.48706 143.002635 98.703264 142.00377 98.776774 C 139.781188 98.919469 139.997393 98.132484 141.502176 96.411497 C 142.790755 95.049408 140.927072 94.335934 139.854698 95.551003 C 136.987826 98.988654 137.346726 101.137726 141.355157 100.852337 C 142.072956 100.778827 142.57455 100.709642 143.14533 100.636132 C 141.644871 103.144104 140.425478 105.937466 139.854698 108.583809 C 138.20722 117.322793 146.371101 116.894708 154.893881 110.231287 C 159.045007 106.940655 162.409148 103.213289 165.56141 99.706453 C 166.136514 99.131349 165.418715 98.629755 164.843611 99.204858 Z M 183.679345 99.204858 C 180.241693 103.144104 176.017058 108.229233 171.718913 111.022595 C 167.208888 113.885142 162.409148 114.027837 162.625353 108.730828 C 162.698862 105.647752 164.056627 102.858714 166.13219 99.775638 C 167.135378 98.417874 165.27602 97.700075 164.342016 99.062163 C 162.266454 102.067406 160.76167 105.863956 160.54979 109.301607 C 160.260076 116.319605 166.348394 116.678504 172.436712 112.523054 C 177.089432 109.375117 181.171373 104.004598 184.539838 99.706453 C 185.041433 99.062163 184.250124 98.629755 183.679345 99.204858 Z M 168.570976 94.980223 C 168.570976 94.980223 168.570976 94.980223 168.640161 94.980223 C 168.570976 94.980223 168.570976 94.980223 168.570976 94.980223 Z M 168.782856 94.837528 C 168.856366 94.764019 170.00225 94.405119 170.071435 93.259235 C 170.071435 92.545761 169.427146 92.186861 168.640161 92.403066 C 167.494278 92.831151 166.923498 93.834339 166.491089 94.906713 C 166.279209 95.551003 166.063004 96.195292 166.063004 96.839581 C 166.063004 97.414685 166.849988 97.341176 167.135378 96.770396 C 167.494278 96.268802 167.922363 95.481817 168.782856 94.837528 Z M 213.039912 99.204858 C 209.96116 102.499815 205.377626 107.511434 200.076292 110.806391 C 194.991163 114.027837 190.264933 114.244042 191.410817 108.441114 C 191.985921 105.863956 193.131804 103.355984 193.702584 101.068541 C 194.489568 97.91628 192.5567 97.55738 190.122238 100.636132 C 188.617455 102.711695 187.328876 105.003462 185.612213 107.654129 C 182.533461 112.164155 179.164995 115.24723 179.523895 111.022595 C 179.882794 106.650941 184.609024 96.913091 187.186181 100.350742 C 187.90398 101.280421 189.979543 99.632943 189.266068 98.703264 C 185.110618 93.19005 178.092621 105.647752 177.232127 111.519865 C 176.661347 116.678504 181.746477 117.180098 187.186181 108.082214 C 188.548269 105.794771 190.264933 102.569 191.268122 101.068541 C 192.487515 99.131349 192.846414 99.849148 192.34482 101.211236 C 191.627021 103.001409 190.195747 105.937466 189.477949 108.730828 C 187.475895 116.246095 193.845279 116.894708 200.794091 112.311174 C 205.520321 109.228098 210.315736 104.073783 213.826896 99.706453 C 214.328491 99.062163 213.610692 98.629755 213.039912 99.204858 Z M 213.039912 99.204858 " stroke="#f6f5f2" stroke-width="3.666675" stroke-opacity="1" stroke-miterlimit="4"/><g fill="#060606" fill-opacity="1"><g transform="translate(60.620487, 242.968851)"><g><path d="M 15.332031 -57.121094 C 3.429688 -50.328125 3.039062 -45.023438 6.535156 -37.261719 C 8.152344 -33.640625 10.542969 -29.304688 8.734375 -24.777344 C 8.734375 -24.777344 8.734375 -24.777344 8.734375 -24.710938 C 8.605469 -24.324219 8.734375 -24 9.058594 -23.871094 C 8.152344 -21.152344 7.308594 -18.5 6.46875 -15.847656 C 3.816406 -15.265625 2.78125 -16.042969 2.003906 -15.980469 C 0.582031 -15.914062 0 -13.910156 1.421875 -13.972656 C 2.328125 -13.972656 4.65625 -14.101562 6.015625 -14.363281 C 4.980469 -10.867188 2.003906 -1.292969 2.78125 -0.195312 C 3.429688 0.515625 5.109375 -0.648438 4.722656 -1.550781 C 4.980469 -4.65625 6.988281 -11.644531 7.890625 -14.8125 C 16.367188 -17.53125 25.230469 -26.328125 30.792969 -33.574219 C 49.425781 -58.027344 44.703125 -73.617188 15.332031 -57.121094 Z M 29.175781 -34.285156 C 24.128906 -27.753906 16.109375 -19.214844 8.34375 -16.429688 C 9.378906 -19.796875 10.414062 -23.160156 11.515625 -26.523438 C 12.550781 -29.5625 18.824219 -48.324219 21.867188 -50.460938 C 22.382812 -50.523438 22.964844 -51.105469 23.09375 -51.625 C 23.546875 -52.851562 21.800781 -52.851562 20.703125 -51.6875 C 17.726562 -48.84375 12.355469 -33.574219 11.191406 -30.144531 C 10.738281 -33.121094 9.316406 -35.644531 8.085938 -38.167969 C 4.851562 -45.21875 5.304688 -49.746094 15.847656 -55.632812 C 45.023438 -71.9375 45.476562 -55.3125 29.175781 -34.285156 Z M 29.175781 -34.285156 "/></g></g></g><g fill="#060606" fill-opacity="1"><g transform="translate(94.970785, 242.968851)"><g><path d="M 17.53125 -28.722656 C 14.425781 -25.164062 10.609375 -20.570312 6.726562 -18.050781 C 2.652344 -15.460938 -1.683594 -15.332031 -1.488281 -20.117188 C -1.421875 -22.902344 -0.195312 -25.421875 1.683594 -28.207031 C 2.585938 -29.433594 0.90625 -30.082031 0.0664062 -28.851562 C -1.8125 -26.136719 -3.167969 -22.707031 -3.363281 -19.601562 C -3.621094 -13.261719 1.875 -12.9375 7.375 -16.691406 C 11.578125 -19.535156 15.265625 -24.390625 18.308594 -28.269531 C 18.761719 -28.851562 18.050781 -29.242188 17.53125 -28.722656 Z M 3.882812 -32.539062 C 3.882812 -32.539062 3.882812 -32.539062 3.945312 -32.539062 C 3.882812 -32.539062 3.882812 -32.539062 3.882812 -32.539062 Z M 4.074219 -32.667969 C 4.140625 -32.734375 5.175781 -33.058594 5.238281 -34.09375 C 5.238281 -34.738281 4.65625 -35.0625 3.945312 -34.867188 C 2.910156 -34.480469 2.394531 -33.574219 2.003906 -32.605469 C 1.8125 -32.023438 1.617188 -31.441406 1.617188 -30.859375 C 1.617188 -30.339844 2.328125 -30.40625 2.585938 -30.921875 C 2.910156 -31.375 3.300781 -32.085938 4.074219 -32.667969 Z M 4.074219 -32.667969 "/></g></g></g><g fill="#060606" fill-opacity="1"><g transform="translate(112.242969, 242.968851)"><g><path d="M 26.976562 -28.398438 C 24.648438 -26.070312 22.125 -23.871094 19.535156 -21.867188 C 10.738281 -15.203125 6.792969 -15.914062 -0.128906 -16.882812 C 3.300781 -19.085938 10.09375 -24.128906 12.875 -27.042969 C 14.167969 -28.464844 13.84375 -29.109375 12.746094 -29.175781 C 11.125 -29.109375 6.273438 -28.335938 3.105469 -28.59375 C 0.648438 -28.789062 1.359375 -29.371094 1.421875 -29.433594 C 1.8125 -29.953125 1.683594 -30.535156 1.230469 -30.664062 C 0.777344 -30.859375 0.128906 -30.535156 -0.257812 -30.015625 C -1.941406 -27.363281 -0.128906 -26.847656 2.265625 -26.652344 C 4.851562 -26.457031 8.085938 -26.847656 10.738281 -27.171875 C 7.957031 -24.390625 1.875 -19.667969 -2.265625 -17.144531 C -3.105469 -17.207031 -4.011719 -17.335938 -4.917969 -16.949219 C -6.46875 -16.300781 -6.855469 -14.167969 -5.238281 -14.296875 C -4.398438 -14.425781 -3.363281 -14.945312 -2.585938 -15.398438 C 4.722656 -14.230469 9.832031 -12.355469 20.25 -20.832031 C 22.964844 -23.03125 25.421875 -25.421875 27.625 -27.945312 C 28.140625 -28.464844 27.492188 -28.980469 26.976562 -28.398438 Z M 26.976562 -28.398438 "/></g></g></g><g fill="#060606" fill-opacity="1"><g transform="translate(139.024557, 242.968851)"><g><path d="M 26.976562 -28.398438 C 24.648438 -26.070312 22.125 -23.871094 19.535156 -21.867188 C 10.738281 -15.203125 6.792969 -15.914062 -0.128906 -16.882812 C 3.300781 -19.085938 10.09375 -24.128906 12.875 -27.042969 C 14.167969 -28.464844 13.84375 -29.109375 12.746094 -29.175781 C 11.125 -29.109375 6.273438 -28.335938 3.105469 -28.59375 C 0.648438 -28.789062 1.359375 -29.371094 1.421875 -29.433594 C 1.8125 -29.953125 1.683594 -30.535156 1.230469 -30.664062 C 0.777344 -30.859375 0.128906 -30.535156 -0.257812 -30.015625 C -1.941406 -27.363281 -0.128906 -26.847656 2.265625 -26.652344 C 4.851562 -26.457031 8.085938 -26.847656 10.738281 -27.171875 C 7.957031 -24.390625 1.875 -19.667969 -2.265625 -17.144531 C -3.105469 -17.207031 -4.011719 -17.335938 -4.917969 -16.949219 C -6.46875 -16.300781 -6.855469 -14.167969 -5.238281 -14.296875 C -4.398438 -14.425781 -3.363281 -14.945312 -2.585938 -15.398438 C 4.722656 -14.230469 9.832031 -12.355469 20.25 -20.832031 C 22.964844 -23.03125 25.421875 -25.421875 27.625 -27.945312 C 28.140625 -28.464844 27.492188 -28.980469 26.976562 -28.398438 Z M 26.976562 -28.398438 "/></g></g></g><g fill="#060606" fill-opacity="1"><g transform="translate(165.806145, 242.968851)"><g><path d="M 20.570312 -28.722656 C 16.753906 -24.972656 12.097656 -20.441406 7.503906 -17.984375 C 0.582031 -14.230469 -4.851562 -16.625 -1.230469 -24.390625 C 1.359375 -24.453125 4.335938 -25.035156 6.726562 -26.847656 C 10.804688 -29.886719 10.027344 -34.09375 6.082031 -32.992188 C 2.78125 -32.085938 -1.292969 -28.59375 -3.300781 -23.484375 C -6.726562 -14.75 -0.257812 -11.839844 7.957031 -16.5625 C 12.9375 -19.34375 17.402344 -24.066406 21.21875 -28.269531 C 21.738281 -28.789062 21.089844 -29.242188 20.570312 -28.722656 Z M 5.953125 -31.375 C 8.152344 -31.894531 8.023438 -29.695312 5.886719 -28.140625 C 4.140625 -26.78125 1.746094 -26.394531 -0.128906 -26.328125 C 1.746094 -29.175781 4.335938 -30.921875 5.953125 -31.375 Z M 5.953125 -31.375 "/></g></g></g><g fill="#060606" fill-opacity="1"><g transform="translate(186.054061, 242.968851)"><g><path d="M 23.484375 -28.722656 C 20.507812 -25.746094 17.078125 -22.382812 13.714844 -19.859375 C 7.632812 -15.398438 1.617188 -14.425781 2.71875 -20.507812 C 3.105469 -22.449219 4.140625 -24.972656 5.953125 -27.753906 C 6.988281 -29.109375 6.664062 -29.695312 5.304688 -29.5 C 4.65625 -29.371094 3.753906 -29.175781 2.847656 -29.109375 C 0.839844 -28.980469 1.035156 -29.695312 2.394531 -31.246094 C 3.558594 -32.476562 1.875 -33.121094 0.90625 -32.023438 C -1.683594 -28.917969 -1.359375 -26.976562 2.265625 -27.234375 C 2.910156 -27.300781 3.363281 -27.363281 3.882812 -27.429688 C 2.523438 -25.164062 1.421875 -22.640625 0.90625 -20.25 C -0.582031 -12.355469 6.792969 -12.746094 14.492188 -18.761719 C 18.242188 -21.738281 21.285156 -25.101562 24.128906 -28.269531 C 24.648438 -28.789062 24 -29.242188 23.484375 -28.722656 Z M 23.484375 -28.722656 "/></g></g></g><g fill="#060606" fill-opacity="1"><g transform="translate(209.018949, 242.968851)"><g><path d="M 17.53125 -28.722656 C 14.425781 -25.164062 10.609375 -20.570312 6.726562 -18.050781 C 2.652344 -15.460938 -1.683594 -15.332031 -1.488281 -20.117188 C -1.421875 -22.902344 -0.195312 -25.421875 1.683594 -28.207031 C 2.585938 -29.433594 0.90625 -30.082031 0.0664062 -28.851562 C -1.8125 -26.136719 -3.167969 -22.707031 -3.363281 -19.601562 C -3.621094 -13.261719 1.875 -12.9375 7.375 -16.691406 C 11.578125 -19.535156 15.265625 -24.390625 18.308594 -28.269531 C 18.761719 -28.851562 18.050781 -29.242188 17.53125 -28.722656 Z M 3.882812 -32.539062 C 3.882812 -32.539062 3.882812 -32.539062 3.945312 -32.539062 C 3.882812 -32.539062 3.882812 -32.539062 3.882812 -32.539062 Z M 4.074219 -32.667969 C 4.140625 -32.734375 5.175781 -33.058594 5.238281 -34.09375 C 5.238281 -34.738281 4.65625 -35.0625 3.945312 -34.867188 C 2.910156 -34.480469 2.394531 -33.574219 2.003906 -32.605469 C 1.8125 -32.023438 1.617188 -31.441406 1.617188 -30.859375 C 1.617188 -30.339844 2.328125 -30.40625 2.585938 -30.921875 C 2.910156 -31.375 3.300781 -32.085938 4.074219 -32.667969 Z M 4.074219 -32.667969 "/></g></g></g><g fill="#060606" fill-opacity="1"><g transform="translate(226.291133, 242.968851)"><g><path d="M 26.78125 -28.722656 C 24 -25.746094 19.859375 -21.21875 15.074219 -18.242188 C 10.480469 -15.332031 6.210938 -15.136719 7.246094 -20.378906 C 7.761719 -22.707031 8.796875 -24.972656 9.316406 -27.042969 C 10.027344 -29.886719 8.28125 -30.210938 6.082031 -27.429688 C 4.722656 -25.554688 3.558594 -23.484375 2.003906 -21.089844 C -0.777344 -17.015625 -3.816406 -14.230469 -3.492188 -18.050781 C -3.167969 -21.996094 1.101562 -30.792969 3.429688 -27.6875 C 4.074219 -26.847656 5.953125 -28.335938 5.304688 -29.175781 C 1.550781 -34.15625 -4.789062 -22.902344 -5.5625 -17.597656 C -6.082031 -12.9375 -1.488281 -12.484375 3.429688 -20.703125 C 4.65625 -22.769531 6.210938 -25.683594 7.117188 -27.042969 C 8.214844 -28.789062 8.539062 -28.140625 8.085938 -26.910156 C 7.441406 -25.292969 6.144531 -22.640625 5.5 -20.117188 C 3.6875 -13.328125 9.445312 -12.746094 15.71875 -16.882812 C 19.988281 -19.667969 24.324219 -24.324219 27.492188 -28.269531 C 27.945312 -28.851562 27.300781 -29.242188 26.78125 -28.722656 Z M 26.78125 -28.722656 "/></g></g></g></svg>