<svg xmlns="http://www.w3.org/2000/svg" xmlns:xlink="http://www.w3.org/1999/xlink" width="500" zoomAndPan="magnify" viewBox="0 0 375 374.999991" height="500" preserveAspectRatio="xMidYMid meet" version="1.0"><defs><g/><clipPath id="54be4fee6f"><path d="M 70.773438 94.039062 L 304.023438 94.039062 L 304.023438 161 L 70.773438 161 Z M 70.773438 94.039062 " clip-rule="nonzero"/></clipPath><clipPath id="a4dd71ed36"><path d="M 87 177 L 288 177 L 288 361.039062 L 87 361.039062 Z M 87 177 " clip-rule="nonzero"/></clipPath></defs><rect x="-37.5" width="450" fill="#ffffff" y="-37.499999" height="449.999989" fill-opacity="1"/><rect x="-37.5" width="450" fill="#f8f6f2" y="-37.499999" height="449.999989" fill-opacity="1"/><g clip-path="url(#54be4fee6f)"><path fill="#000000" d="M 295.691406 126.789062 L 237.378906 126.789062 L 237.378906 102.382812 C 237.378906 97.792969 233.632812 94.039062 229.050781 94.039062 L 145.75 94.039062 C 141.167969 94.039062 137.417969 97.792969 137.417969 102.382812 L 137.417969 126.789062 L 79.109375 126.789062 C 74.527344 126.789062 70.78125 130.542969 70.78125 135.132812 L 70.78125 151.820312 C 70.78125 156.40625 74.527344 160.164062 79.109375 160.164062 L 295.691406 160.164062 C 300.273438 160.164062 304.019531 156.40625 304.019531 151.820312 L 304.019531 135.132812 C 304.019531 130.542969 300.273438 126.789062 295.691406 126.789062 Z M 295.691406 126.789062 " fill-opacity="1" fill-rule="nonzero"/></g><g clip-path="url(#a4dd71ed36)"><path fill="#000000" d="M 107.429688 353.738281 C 107.847656 357.910156 111.386719 361.039062 115.761719 361.039062 L 259.246094 361.039062 C 263.410156 361.039062 266.953125 357.910156 267.578125 353.738281 L 287.570312 177.683594 L 87.4375 177.683594 Z M 220.71875 326.621094 L 235.296875 210.015625 C 235.921875 205.425781 240.085938 202.296875 244.667969 202.714844 C 249.25 203.339844 252.375 207.511719 251.957031 212.101562 L 237.378906 328.707031 C 236.753906 332.878906 233.214844 336.007812 229.050781 336.007812 C 228.632812 336.007812 228.425781 336.007812 228.007812 336.007812 C 223.425781 335.382812 220.304688 331.210938 220.71875 326.621094 Z M 179.070312 211.058594 C 179.070312 206.46875 182.820312 202.714844 187.398438 202.714844 C 191.980469 202.714844 195.730469 206.46875 195.730469 211.058594 L 195.730469 327.664062 C 195.730469 332.253906 191.980469 336.007812 187.398438 336.007812 C 182.820312 336.007812 179.070312 332.253906 179.070312 327.664062 Z M 130.132812 202.714844 C 134.710938 202.089844 138.878906 205.425781 139.503906 210.015625 L 154.078125 326.621094 C 154.703125 331.210938 151.371094 335.382812 146.789062 336.007812 C 146.375 336.007812 146.167969 336.007812 145.75 336.007812 C 141.585938 336.007812 138.042969 332.878906 137.417969 328.707031 L 122.84375 212.101562 C 122.425781 207.511719 125.550781 203.339844 130.132812 202.714844 Z M 130.132812 202.714844 " fill-opacity="1" fill-rule="nonzero"/></g><g fill="#000000" fill-opacity="1"><g transform="translate(68.091797, 78.988178)"><g><path d="M 45.703125 -24.375 C 45.703125 -16.5 43.457031 -10.46875 38.96875 -6.28125 C 34.488281 -2.09375 28.019531 0 19.5625 0 L 6.015625 0 L 6.015625 -47.828125 L 21.03125 -47.828125 C 28.84375 -47.828125 34.90625 -45.765625 39.21875 -41.640625 C 43.539062 -37.523438 45.703125 -31.769531 45.703125 -24.375 Z M 35.171875 -24.109375 C 35.171875 -34.378906 30.632812 -39.515625 21.5625 -39.515625 L 16.15625 -39.515625 L 16.15625 -8.375 L 20.515625 -8.375 C 30.285156 -8.375 35.171875 -13.617188 35.171875 -24.109375 Z M 35.171875 -24.109375 "/></g></g></g><g fill="#000000" fill-opacity="1"><g transform="translate(117.684605, 78.988178)"><g><path d="M 33.5625 0 L 6.015625 0 L 6.015625 -47.828125 L 33.5625 -47.828125 L 33.5625 -39.515625 L 16.15625 -39.515625 L 16.15625 -29.015625 L 32.359375 -29.015625 L 32.359375 -20.703125 L 16.15625 -20.703125 L 16.15625 -8.375 L 33.5625 -8.375 Z M 33.5625 0 "/></g></g></g><g fill="#000000" fill-opacity="1"><g transform="translate(155.206347, 78.988178)"><g><path d="M 6.015625 0 L 6.015625 -47.828125 L 16.15625 -47.828125 L 16.15625 -8.375 L 35.5625 -8.375 L 35.5625 0 Z M 6.015625 0 "/></g></g></g><g fill="#000000" fill-opacity="1"><g transform="translate(193.055217, 78.988178)"><g><path d="M 33.5625 0 L 6.015625 0 L 6.015625 -47.828125 L 33.5625 -47.828125 L 33.5625 -39.515625 L 16.15625 -39.515625 L 16.15625 -29.015625 L 32.359375 -29.015625 L 32.359375 -20.703125 L 16.15625 -20.703125 L 16.15625 -8.375 L 33.5625 -8.375 Z M 33.5625 0 "/></g></g></g><g fill="#000000" fill-opacity="1"><g transform="translate(230.576959, 78.988178)"><g><path d="M 24.46875 0 L 14.328125 0 L 14.328125 -39.390625 L 1.34375 -39.390625 L 1.34375 -47.828125 L 37.453125 -47.828125 L 37.453125 -39.390625 L 24.46875 -39.390625 Z M 24.46875 0 "/></g></g></g><g fill="#000000" fill-opacity="1"><g transform="translate(269.374499, 78.988178)"><g><path d="M 33.5625 0 L 6.015625 0 L 6.015625 -47.828125 L 33.5625 -47.828125 L 33.5625 -39.515625 L 16.15625 -39.515625 L 16.15625 -29.015625 L 32.359375 -29.015625 L 32.359375 -20.703125 L 16.15625 -20.703125 L 16.15625 -8.375 L 33.5625 -8.375 Z M 33.5625 0 "/></g></g></g></svg>