<svg xmlns="http://www.w3.org/2000/svg" xmlns:xlink="http://www.w3.org/1999/xlink" width="500" zoomAndPan="magnify" viewBox="0 0 375 374.999991" height="500" preserveAspectRatio="xMidYMid meet" version="1.0"><defs><g/></defs><rect x="-37.5" width="450" fill="#ffffff" y="-37.499999" height="449.999989" fill-opacity="1"/><rect x="-37.5" width="450" fill="#f8f6f2" y="-37.499999" height="449.999989" fill-opacity="1"/><path fill="#000000" d="M 320.363281 76.867188 C 317.714844 74.621094 314.261719 74.09375 311.054688 75.445312 L 292.558594 83.289062 C 280.761719 61.621094 264.023438 43.148438 243.933594 29.292969 C 216.421875 10.324219 182.714844 -0.0234375 146.90625 1.917969 C 118.292969 3.464844 91.867188 12.644531 69.507812 27.375 C 55.425781 36.660156 42.949219 48.203125 32.546875 61.488281 C 27.652344 67.734375 28.679688 76.789062 34.84375 81.792969 L 46.917969 91.597656 C 50.0625 94.152344 53.695312 95.214844 57.730469 94.765625 C 61.757812 94.3125 65.0625 92.472656 67.566406 89.292969 C 75.007812 79.835938 83.996094 71.550781 94.1875 64.835938 C 110.078125 54.367188 128.902344 47.832031 149.335938 46.722656 C 174.988281 45.335938 199.035156 52.675781 218.550781 66.128906 C 231.710938 75.210938 242.851562 87.046875 251.097656 100.855469 L 232.257812 108.851562 C 229.136719 110.164062 227.136719 112.886719 226.816406 116.257812 C 226.496094 119.621094 227.941406 122.671875 230.75 124.558594 L 291.609375 165.378906 C 294.113281 167.070312 297.039062 167.386719 299.855469 166.285156 C 302.671875 165.195312 304.617188 162.980469 305.332031 160.039062 L 323.28125 85.820312 C 324.105469 82.441406 323.019531 79.121094 320.363281 76.867188 Z M 291.75 185.878906 C 242.152344 176.527344 194.371094 209.167969 185.027344 258.765625 C 175.6875 308.367188 208.320312 356.148438 257.917969 365.492188 C 307.515625 374.832031 355.300781 342.199219 364.640625 292.601562 C 373.984375 243 341.351562 195.21875 291.75 185.878906 Z M 332.722656 252.183594 L 269.125 315.75 L 262.625 322.246094 C 260.582031 324.289062 257.269531 324.308594 255.203125 322.296875 L 248.609375 315.898438 L 215.96875 284.210938 C 213.65625 281.957031 213.597656 278.238281 215.851562 275.917969 L 228.042969 263.359375 C 230.296875 261.046875 234.011719 260.996094 236.324219 263.238281 L 258.640625 284.90625 L 312.058594 231.523438 C 314.335938 229.246094 318.058594 229.246094 320.339844 231.523438 L 332.722656 243.902344 C 335.003906 246.179688 335.003906 249.90625 332.722656 252.183594 Z M 159.351562 269.191406 C 140.828125 269.898438 122.910156 265.964844 106.96875 258.261719 C 92.574219 251.308594 79.75 241.3125 69.484375 228.925781 L 86.890625 218.148438 C 89.765625 216.363281 91.328125 213.371094 91.125 209.992188 C 90.925781 206.613281 89.03125 203.820312 85.972656 202.390625 L 19.582031 171.363281 C 16.851562 170.078125 13.914062 170.214844 11.292969 171.726562 C 8.675781 173.25 7.097656 175.71875 6.84375 178.738281 L 0.453125 254.832031 C 0.160156 258.296875 1.742188 261.421875 4.707031 263.238281 C 7.675781 265.046875 11.164062 265.046875 14.125 263.214844 L 31.203125 252.628906 C 46.175781 272.226562 65.550781 287.925781 87.519531 298.546875 C 111.222656 310.003906 137.925781 315.472656 165.351562 313.6875 C 161.914062 303.683594 159.746094 293.054688 159.207031 281.957031 C 159.003906 277.652344 159.082031 273.398438 159.351562 269.191406 Z M 159.351562 269.191406 " fill-opacity="1" fill-rule="nonzero"/><g fill="#000000" fill-opacity="1"><g transform="translate(5.867451, 139.280988)"><g><path d="M 37.03125 -39.40625 L 37.03125 -13.90625 C 37.03125 -11 36.378906 -8.445312 35.078125 -6.25 C 33.773438 -4.0625 31.890625 -2.378906 29.421875 -1.203125 C 26.960938 -0.0351562 24.054688 0.546875 20.703125 0.546875 C 15.628906 0.546875 11.691406 -0.75 8.890625 -3.34375 C 6.085938 -5.945312 4.6875 -9.503906 4.6875 -14.015625 L 4.6875 -39.40625 L 13.015625 -39.40625 L 13.015625 -15.28125 C 13.015625 -12.25 13.625 -10.019531 14.84375 -8.59375 C 16.070312 -7.175781 18.097656 -6.46875 20.921875 -6.46875 C 23.648438 -6.46875 25.628906 -7.179688 26.859375 -8.609375 C 28.085938 -10.035156 28.703125 -12.28125 28.703125 -15.34375 L 28.703125 -39.40625 Z M 37.03125 -39.40625 "/></g></g></g><g fill="#000000" fill-opacity="1"><g transform="translate(47.596201, 139.280988)"><g><path d="M 13.3125 -20.859375 L 16.0625 -20.859375 C 18.632812 -20.859375 20.554688 -21.363281 21.828125 -22.375 C 23.109375 -23.394531 23.75 -24.875 23.75 -26.8125 C 23.75 -28.78125 23.210938 -30.226562 22.140625 -31.15625 C 21.078125 -32.09375 19.398438 -32.5625 17.109375 -32.5625 L 13.3125 -32.5625 Z M 32.1875 -27.109375 C 32.1875 -22.867188 30.859375 -19.625 28.203125 -17.375 C 25.554688 -15.132812 21.789062 -14.015625 16.90625 -14.015625 L 13.3125 -14.015625 L 13.3125 0 L 4.953125 0 L 4.953125 -39.40625 L 17.546875 -39.40625 C 22.328125 -39.40625 25.960938 -38.375 28.453125 -36.3125 C 30.941406 -34.257812 32.1875 -31.191406 32.1875 -27.109375 Z M 32.1875 -27.109375 "/></g></g></g><g fill="#000000" fill-opacity="1"><g transform="translate(82.262332, 139.280988)"><g><path d="M 37.65625 -20.078125 C 37.65625 -13.585938 35.804688 -8.617188 32.109375 -5.171875 C 28.421875 -1.722656 23.09375 0 16.125 0 L 4.953125 0 L 4.953125 -39.40625 L 17.328125 -39.40625 C 23.765625 -39.40625 28.757812 -37.707031 32.3125 -34.3125 C 35.875 -30.914062 37.65625 -26.171875 37.65625 -20.078125 Z M 28.96875 -19.859375 C 28.96875 -28.328125 25.234375 -32.5625 17.765625 -32.5625 L 13.3125 -32.5625 L 13.3125 -6.90625 L 16.90625 -6.90625 C 24.945312 -6.90625 28.96875 -11.222656 28.96875 -19.859375 Z M 28.96875 -19.859375 "/></g></g></g><g fill="#000000" fill-opacity="1"><g transform="translate(123.128472, 139.280988)"><g><path d="M 29.078125 0 L 26.234375 -9.375 L 11.859375 -9.375 L 9 0 L 0 0 L 13.90625 -39.5625 L 24.125 -39.5625 L 38.09375 0 Z M 24.234375 -16.390625 C 21.585938 -24.890625 20.097656 -29.695312 19.765625 -30.8125 C 19.429688 -31.925781 19.195312 -32.804688 19.0625 -33.453125 C 18.46875 -31.148438 16.769531 -25.460938 13.96875 -16.390625 Z M 24.234375 -16.390625 "/></g></g></g><g fill="#000000" fill-opacity="1"><g transform="translate(161.218092, 139.280988)"><g><path d="M 20.15625 0 L 11.8125 0 L 11.8125 -32.453125 L 1.109375 -32.453125 L 1.109375 -39.40625 L 30.859375 -39.40625 L 30.859375 -32.453125 L 20.15625 -32.453125 Z M 20.15625 0 "/></g></g></g><g fill="#000000" fill-opacity="1"><g transform="translate(193.188568, 139.280988)"><g><path d="M 27.65625 0 L 4.953125 0 L 4.953125 -39.40625 L 27.65625 -39.40625 L 27.65625 -32.5625 L 13.3125 -32.5625 L 13.3125 -23.90625 L 26.65625 -23.90625 L 26.65625 -17.0625 L 13.3125 -17.0625 L 13.3125 -6.90625 L 27.65625 -6.90625 Z M 27.65625 0 "/></g></g></g><g fill="#000000" fill-opacity="1"><g transform="translate(69.160416, 194.204855)"><g><path d="M 13.3125 -20.859375 L 16.0625 -20.859375 C 18.632812 -20.859375 20.554688 -21.363281 21.828125 -22.375 C 23.109375 -23.394531 23.75 -24.875 23.75 -26.8125 C 23.75 -28.78125 23.210938 -30.226562 22.140625 -31.15625 C 21.078125 -32.09375 19.398438 -32.5625 17.109375 -32.5625 L 13.3125 -32.5625 Z M 32.1875 -27.109375 C 32.1875 -22.867188 30.859375 -19.625 28.203125 -17.375 C 25.554688 -15.132812 21.789062 -14.015625 16.90625 -14.015625 L 13.3125 -14.015625 L 13.3125 0 L 4.953125 0 L 4.953125 -39.40625 L 17.546875 -39.40625 C 22.328125 -39.40625 25.960938 -38.375 28.453125 -36.3125 C 30.941406 -34.257812 32.1875 -31.191406 32.1875 -27.109375 Z M 32.1875 -27.109375 "/></g></g></g><g fill="#000000" fill-opacity="1"><g transform="translate(103.819189, 194.204855)"><g><path d="M 4.953125 0 L 4.953125 -39.40625 L 13.3125 -39.40625 L 13.3125 0 Z M 4.953125 0 "/></g></g></g><g fill="#000000" fill-opacity="1"><g transform="translate(122.091854, 194.204855)"><g><path d="M 30.640625 0 L 1.328125 0 L 1.328125 -5.421875 L 20.21875 -32.5 L 1.828125 -32.5 L 1.828125 -39.40625 L 30.140625 -39.40625 L 30.140625 -34.015625 L 11.265625 -6.90625 L 30.640625 -6.90625 Z M 30.640625 0 "/></g></g></g><g fill="#000000" fill-opacity="1"><g transform="translate(154.055544, 194.204855)"><g><path d="M 30.640625 0 L 1.328125 0 L 1.328125 -5.421875 L 20.21875 -32.5 L 1.828125 -32.5 L 1.828125 -39.40625 L 30.140625 -39.40625 L 30.140625 -34.015625 L 11.265625 -6.90625 L 30.640625 -6.90625 Z M 30.640625 0 "/></g></g></g><g fill="#000000" fill-opacity="1"><g transform="translate(186.019234, 194.204855)"><g><path d="M 29.078125 0 L 26.234375 -9.375 L 11.859375 -9.375 L 9 0 L 0 0 L 13.90625 -39.5625 L 24.125 -39.5625 L 38.09375 0 Z M 24.234375 -16.390625 C 21.585938 -24.890625 20.097656 -29.695312 19.765625 -30.8125 C 19.429688 -31.925781 19.195312 -32.804688 19.0625 -33.453125 C 18.46875 -31.148438 16.769531 -25.460938 13.96875 -16.390625 Z M 24.234375 -16.390625 "/></g></g></g></svg>