<svg xmlns="http://www.w3.org/2000/svg" xmlns:xlink="http://www.w3.org/1999/xlink" width="500" zoomAndPan="magnify" viewBox="0 0 375 374.999991" height="500" preserveAspectRatio="xMidYMid meet" version="1.0"><defs><g/><clipPath id="72b9772ff4"><path d="M 56.25 113 L 313 113 L 313 370 L 56.25 370 Z M 56.25 113 " clip-rule="nonzero"/></clipPath></defs><rect x="-37.5" width="450" fill="#ffffff" y="-37.499999" height="449.999989" fill-opacity="1"/><rect x="-37.5" width="450" fill="#f8f6f2" y="-37.499999" height="449.999989" fill-opacity="1"/><g clip-path="url(#72b9772ff4)"><path fill="#000000" d="M 280.503906 166.304688 C 278.652344 164.734375 276.230469 164.363281 273.988281 165.3125 L 261.042969 170.804688 C 252.785156 155.636719 241.066406 142.707031 227.003906 133.003906 C 207.746094 119.726562 184.152344 112.480469 159.085938 113.84375 C 139.054688 114.925781 120.554688 121.351562 104.90625 131.664062 C 95.046875 138.160156 86.3125 146.242188 79.035156 155.542969 C 75.609375 159.914062 76.324219 166.253906 80.640625 169.753906 L 89.09375 176.617188 C 91.292969 178.40625 93.835938 179.148438 96.660156 178.835938 C 99.480469 178.519531 101.792969 177.230469 103.546875 175.003906 C 108.757812 168.382812 115.046875 162.585938 122.179688 157.882812 C 133.304688 150.554688 146.484375 145.984375 160.785156 145.207031 C 178.742188 144.234375 195.574219 149.375 209.234375 158.789062 C 218.445312 165.148438 226.246094 173.433594 232.019531 183.097656 L 218.828125 188.695312 C 216.644531 189.613281 215.246094 191.519531 215.019531 193.882812 C 214.796875 196.234375 215.808594 198.371094 217.777344 199.691406 L 260.375 228.265625 C 262.128906 229.449219 264.179688 229.671875 266.148438 228.902344 C 268.121094 228.136719 269.480469 226.585938 269.980469 224.527344 L 282.546875 172.574219 C 283.125 170.207031 282.363281 167.882812 280.503906 166.304688 Z M 260.476562 242.613281 C 225.757812 236.070312 192.308594 258.917969 185.769531 293.636719 C 179.230469 328.355469 202.074219 361.804688 236.792969 368.34375 C 271.511719 374.882812 304.960938 352.039062 311.5 317.320312 C 318.039062 282.601562 295.195312 249.152344 260.476562 242.613281 Z M 289.15625 289.027344 L 244.636719 333.523438 L 240.089844 338.074219 C 238.65625 339.503906 236.339844 339.515625 234.890625 338.109375 L 230.277344 333.628906 L 207.429688 311.445312 C 205.808594 309.871094 205.769531 307.269531 207.347656 305.644531 L 215.878906 296.851562 C 217.457031 295.230469 220.058594 295.195312 221.679688 296.769531 L 237.296875 311.933594 L 274.691406 274.566406 C 276.285156 272.972656 278.890625 272.972656 280.488281 274.566406 L 289.15625 283.230469 C 290.75 284.824219 290.75 287.433594 289.15625 289.027344 Z M 167.792969 300.933594 C 154.828125 301.429688 142.285156 298.675781 131.128906 293.285156 C 121.050781 288.417969 112.074219 281.417969 104.890625 272.75 L 117.074219 265.203125 C 119.085938 263.957031 120.179688 261.859375 120.039062 259.492188 C 119.898438 257.128906 118.574219 255.175781 116.429688 254.171875 L 69.957031 232.457031 C 68.042969 231.554688 65.992188 231.648438 64.15625 232.707031 C 62.324219 233.773438 61.21875 235.503906 61.039062 237.617188 L 56.566406 290.882812 C 56.363281 293.308594 57.46875 295.496094 59.546875 296.769531 C 61.625 298.035156 64.066406 298.035156 66.136719 296.75 L 78.089844 289.339844 C 88.574219 303.058594 102.132812 314.046875 117.515625 321.480469 C 134.105469 329.503906 152.796875 333.328125 171.996094 332.082031 C 169.589844 325.078125 168.070312 317.636719 167.695312 309.871094 C 167.554688 306.855469 167.605469 303.878906 167.792969 300.933594 Z M 167.792969 300.933594 " fill-opacity="1" fill-rule="nonzero"/></g><g fill="#000000" fill-opacity="1"><g transform="translate(51.128908, 97.649876)"><g><path d="M 46.296875 -49.25 L 46.296875 -17.390625 C 46.296875 -13.742188 45.476562 -10.550781 43.84375 -7.8125 C 42.21875 -5.070312 39.863281 -2.972656 36.78125 -1.515625 C 33.707031 -0.0546875 30.070312 0.671875 25.875 0.671875 C 19.539062 0.671875 14.617188 -0.945312 11.109375 -4.1875 C 7.609375 -7.4375 5.859375 -11.878906 5.859375 -17.515625 L 5.859375 -49.25 L 16.265625 -49.25 L 16.265625 -19.109375 C 16.265625 -15.304688 17.03125 -12.519531 18.5625 -10.75 C 20.09375 -8.976562 22.617188 -8.09375 26.140625 -8.09375 C 29.554688 -8.09375 32.03125 -8.984375 33.5625 -10.765625 C 35.101562 -12.546875 35.875 -15.347656 35.875 -19.171875 L 35.875 -49.25 Z M 46.296875 -49.25 "/></g></g></g><g fill="#000000" fill-opacity="1"><g transform="translate(103.274343, 97.649876)"><g><path d="M 16.640625 -26.078125 L 20.078125 -26.078125 C 23.285156 -26.078125 25.6875 -26.710938 27.28125 -27.984375 C 28.882812 -29.253906 29.6875 -31.097656 29.6875 -33.515625 C 29.6875 -35.972656 29.015625 -37.785156 27.671875 -38.953125 C 26.335938 -40.117188 24.242188 -40.703125 21.390625 -40.703125 L 16.640625 -40.703125 Z M 40.234375 -33.890625 C 40.234375 -28.585938 38.570312 -24.53125 35.25 -21.71875 C 31.9375 -18.914062 27.226562 -17.515625 21.125 -17.515625 L 16.640625 -17.515625 L 16.640625 0 L 6.203125 0 L 6.203125 -49.25 L 21.9375 -49.25 C 27.90625 -49.25 32.445312 -47.960938 35.5625 -45.390625 C 38.675781 -42.828125 40.234375 -38.992188 40.234375 -33.890625 Z M 40.234375 -33.890625 "/></g></g></g><g fill="#000000" fill-opacity="1"><g transform="translate(146.59413, 97.649876)"><g><path d="M 47.0625 -25.09375 C 47.0625 -16.988281 44.753906 -10.78125 40.140625 -6.46875 C 35.523438 -2.15625 28.859375 0 20.140625 0 L 6.203125 0 L 6.203125 -49.25 L 21.65625 -49.25 C 29.695312 -49.25 35.941406 -47.125 40.390625 -42.875 C 44.835938 -38.632812 47.0625 -32.707031 47.0625 -25.09375 Z M 36.21875 -24.828125 C 36.21875 -35.410156 31.546875 -40.703125 22.203125 -40.703125 L 16.640625 -40.703125 L 16.640625 -8.625 L 21.125 -8.625 C 31.1875 -8.625 36.21875 -14.023438 36.21875 -24.828125 Z M 36.21875 -24.828125 "/></g></g></g><g fill="#000000" fill-opacity="1"><g transform="translate(197.661624, 97.649876)"><g><path d="M 36.359375 0 L 32.78125 -11.71875 L 14.828125 -11.71875 L 11.25 0 L 0 0 L 17.390625 -49.453125 L 30.15625 -49.453125 L 47.609375 0 Z M 30.28125 -20.484375 C 26.988281 -31.109375 25.132812 -37.113281 24.71875 -38.5 C 24.300781 -39.894531 24 -41 23.8125 -41.8125 C 23.070312 -38.9375 20.953125 -31.828125 17.453125 -20.484375 Z M 30.28125 -20.484375 "/></g></g></g><g fill="#000000" fill-opacity="1"><g transform="translate(245.25951, 97.649876)"><g><path d="M 25.203125 0 L 14.75 0 L 14.75 -40.5625 L 1.375 -40.5625 L 1.375 -49.25 L 38.578125 -49.25 L 38.578125 -40.5625 L 25.203125 -40.5625 Z M 25.203125 0 "/></g></g></g><g fill="#000000" fill-opacity="1"><g transform="translate(285.21074, 97.649876)"><g><path d="M 34.5625 0 L 6.203125 0 L 6.203125 -49.25 L 34.5625 -49.25 L 34.5625 -40.703125 L 16.640625 -40.703125 L 16.640625 -29.890625 L 33.328125 -29.890625 L 33.328125 -21.328125 L 16.640625 -21.328125 L 16.640625 -8.625 L 34.5625 -8.625 Z M 34.5625 0 "/></g></g></g></svg>